<?xml version="1.0" encoding="utf-8"?>
<!DOCTYPE svg PUBLIC "-//W3C//DTD SVG 1.0//EN" "http://www.w3.org/TR/2001/REC-SVG-20010904/DTD/svg10.dtd">
<svg version="1.0" xmlns="http://www.w3.org/2000/svg" width="225px" height="225px" viewBox="0 0 225 225" preserveAspectRatio="xMidYMid meet">
 <g fill="#16161a">
  <path d="M0 112.50 l0 -112.50 112.50 0 112.50 0 0 112.50 0 112.50 -112.50 0 -112.50 0 0 -112.50z m82.40 58.51 c2.88 -1.25 4.70 -2.31 7.19 -4.15 6.15 -4.61 12.33 -12.92 16.48 -22.17 0.75 -1.69 1.47 -3.25 1.60 -3.45 0.37 -0.64 1.96 -0.51 3.67 0.26 0.79 0.37 1.49 0.62 1.56 0.57 0.07 -0.09 -5.21 -20.30 -5.36 -20.52 -0.04 -0.04 -2.90 1.05 -6.39 2.44 -3.47 1.38 -7.78 3.10 -9.56 3.80 l-3.23 1.27 2.31 1.30 2.29 1.30 0 1.10 c0 0.99 -0.18 1.36 -1.52 3.56 -5.60 9.03 -12.06 16.35 -17.82 20.24 -3.60 2.42 -8.57 4.48 -10.85 4.50 -0.68 0.02 -0.66 0.04 0.97 1.58 3.65 3.47 8.64 6.77 13.40 8.88 1.96 0.88 2.07 0.86 5.27 -0.51z m36.19 -5.23 c11.51 -1.52 22.08 -6.50 30.41 -14.35 l1.63 -1.56 -2.86 -2.81 c-3.14 -3.10 -6.59 -5.82 -11.07 -8.75 -2.29 -1.49 -2.97 -1.85 -3.12 -1.63 -0.11 0.18 -0.86 1.47 -1.65 2.88 -1.87 3.30 -2.04 3.47 -3.34 3.47 -0.57 0 -1.14 -0.09 -1.27 -0.18 -0.57 -0.35 -2.04 -3.93 -7.58 -18.37 -2.42 -6.24 -2.61 -6.90 -2.61 -8.26 0 -1.14 0.09 -1.56 0.40 -1.82 0.22 -0.20 1.47 -0.66 2.81 -1.01 1.32 -0.35 5.52 -1.47 9.32 -2.50 3.80 -1.03 8.61 -2.33 10.68 -2.88 2.90 -0.79 4.13 -1.01 5.43 -1.01 1.49 0 1.71 0.04 1.93 0.46 0.42 0.81 0.09 2.44 -0.94 4.79 l-1.01 2.22 2.24 1.08 c4.44 2.09 10.70 5.98 14.52 8.99 1.47 1.16 2.02 1.49 2.13 1.25 0.31 -0.51 1.25 -4.75 1.60 -7.01 0.51 -3.38 0.64 -7.40 0.35 -10.46 -1.14 -11.98 -5.95 -22.54 -14.44 -31.73 l-1.76 -1.93 -2.42 2.40 c-3.69 3.63 -6.79 7.51 -9.60 12 -0.81 1.30 -1.47 2.42 -1.47 2.50 0 0.11 1.12 0.75 2.48 1.45 4.13 2.11 3.91 1.93 3.85 3.38 -0.07 1.14 -0.13 1.30 -0.75 1.71 -0.40 0.26 -6.06 2.61 -12.63 5.23 -11.43 4.57 -12.02 4.77 -13.43 4.77 -1.32 0 -1.52 -0.07 -1.82 -0.53 -0.20 -0.31 -1.12 -3.34 -2.07 -6.77 -0.94 -3.43 -2.33 -8.39 -3.05 -11.05 -2.09 -7.56 -2.46 -9.12 -2.46 -10.33 0 -0.62 0.11 -1.23 0.26 -1.38 0.57 -0.57 2.70 -0.31 5.03 0.62 1.23 0.48 2.26 0.88 2.31 0.88 0.04 0 0.77 -1.41 1.63 -3.12 2.59 -5.34 6.04 -10.68 9.32 -14.48 l1.63 -1.91 -2.22 -0.55 c-4.35 -1.08 -6.72 -1.36 -11.69 -1.34 -2.53 0 -5.49 0.13 -6.59 0.29 -11.58 1.58 -22.57 7.01 -30.32 14.96 l-1.98 2.02 2.86 2.79 c4.17 4.06 8.77 7.60 13.34 10.22 l1.03 0.59 0.59 -1.05 c2.97 -5.21 2.88 -5.12 4.48 -5.12 1.14 0 1.36 0.07 1.65 0.53 0.31 0.46 1.76 4.13 7.95 20.13 2.07 5.32 2.31 7.08 1.10 7.73 -0.53 0.29 -2.15 0.75 -16.88 4.79 -7.69 2.11 -9.87 2.64 -11.01 2.64 -1.82 0 -2.02 -0.20 -1.89 -2.04 0.07 -1.10 0.31 -1.85 1.08 -3.45 l0.99 -2.04 -3.87 -1.93 c-5.60 -2.81 -9.10 -5.08 -14.11 -9.10 -1.43 -1.14 -1.23 -1.30 -1.91 1.76 -1.08 4.92 -1.45 11.47 -0.90 15.93 1.03 8.28 4.02 16.22 8.90 23.51 1.85 2.79 4.59 6.22 6.26 7.80 l0.90 0.88 2.46 -2.53 c3.56 -3.65 6.33 -7.19 9.60 -12.17 l1.05 -1.60 -2.68 -1.45 c-3.36 -1.82 -3.69 -2.18 -3.60 -3.58 0.09 -1.36 0.46 -1.63 4.75 -3.30 1.78 -0.68 7.16 -2.81 11.98 -4.72 8.09 -3.23 8.88 -3.49 10.15 -3.49 1.58 0 1.96 0.24 2.31 1.49 0.42 1.58 6.13 23.03 6.46 24.35 0.20 0.75 0.35 2 0.35 2.81 0 1.25 -0.07 1.47 -0.48 1.69 -0.75 0.40 -2.35 0.09 -4.66 -0.88 -1.14 -0.51 -2.13 -0.90 -2.20 -0.90 -0.07 0 -0.79 1.43 -1.63 3.16 -2.46 5.12 -4.97 9.10 -8.35 13.32 -0.99 1.23 -1.25 1.69 -1.03 1.82 0.83 0.46 7.89 1.76 10.88 1.98 2.59 0.20 5.93 0.13 8.28 -0.18z m39.02 -1.69 c-0.29 -1.54 -1.19 -4.44 -1.82 -5.84 -0.81 -1.78 -2.44 -4.66 -2.64 -4.66 -0.09 0 -0.92 0.70 -1.87 1.56 -2.04 1.87 -5.34 4.35 -7.54 5.67 l-1.60 0.97 0.73 0.31 c1.49 0.64 5.63 1.78 7.65 2.13 3.12 0.53 3.03 0.51 5.21 0.55 l2.04 0.02 -0.15 -0.70z m8.37 -7.32 c1.01 -1.34 2.37 -3.27 3.01 -4.28 1.36 -2.22 3.49 -6.53 3.49 -7.12 0 -0.64 -1.63 -4.31 -2.83 -6.33 -2.50 -4.26 -5.58 -7.71 -9.89 -11.14 -4.37 -3.47 -8.42 -5.98 -15.01 -9.27 l-3.91 -1.96 0 -0.83 c0 -0.48 0.31 -1.47 0.77 -2.44 0.44 -0.90 0.75 -1.65 0.70 -1.69 -0.04 -0.07 -2.46 0.57 -15.58 4.11 -2.88 0.77 -5.23 1.52 -5.23 1.63 0 0.20 0.90 2.55 5.56 14.46 l1.78 4.57 0.46 -0.79 c0.24 -0.44 0.86 -1.54 1.38 -2.44 l0.92 -1.63 1.05 0 c1.23 0 3.16 1.03 7.95 4.22 9.16 6.15 15.03 12.30 18.44 19.40 1.03 2.13 1.80 4.35 2.13 6.15 l0.15 0.86 1.41 -1.52 c0.77 -0.86 2.22 -2.64 3.23 -3.96z m-104.19 0.46 c3.05 -0.59 6.20 -2.04 9.49 -4.35 0.11 -0.07 -0.59 -1.01 -1.58 -2.07 -2.04 -2.18 -4.46 -5.30 -5.87 -7.60 l-0.99 -1.58 -0.64 1.43 c-1.76 3.91 -3.01 10.22 -2.70 13.60 0.11 1.01 0.07 0.99 2.29 0.57z m25.44 -44.45 c1.52 -0.42 3.25 -0.90 3.85 -1.05 3.25 -0.86 12.52 -3.43 12.57 -3.47 0.02 -0.04 -0.66 -1.85 -1.52 -4 -0.83 -2.18 -2.48 -6.37 -3.60 -9.32 -1.14 -2.97 -2.11 -5.41 -2.15 -5.45 -0.04 -0.04 -0.40 0.48 -0.79 1.19 -1.74 3.10 -1.96 3.36 -2.81 3.36 -1.36 0 -6.99 -3.32 -12.35 -7.34 -3.71 -2.77 -9.36 -8.35 -11.49 -11.34 -2.48 -3.54 -4.11 -7.08 -5.14 -11.18 l-0.18 -0.75 -2.11 2.50 c-3.36 3.98 -6.64 8.92 -8.35 12.57 l-0.66 1.43 0.55 1.45 c1.78 4.70 4.83 9.25 8.75 13.01 5.05 4.86 11.32 9.01 18.96 12.61 1.69 0.79 3.21 1.52 3.36 1.60 0.55 0.35 0.31 2.26 -0.51 3.87 l-0.75 1.52 0.81 -0.22 c0.44 -0.11 2.04 -0.55 3.56 -0.99z m49.22 -16.52 c0.07 -0.04 0.02 -0.11 -0.11 -0.15 -0.11 -0.04 -1.16 -0.62 -2.31 -1.25 -2.02 -1.10 -2.09 -1.16 -2.15 -1.98 -0.09 -1.05 1.34 -3.82 4.26 -8.17 4.22 -6.28 8.55 -11.05 13.38 -14.68 4.11 -3.08 9.18 -5.54 12.35 -5.98 l1.16 -0.15 -1.25 -1.12 c-3.49 -3.23 -8.31 -6.50 -12.90 -8.79 -2.99 -1.49 -2.90 -1.49 -5.84 -0.18 -7.43 3.36 -13.67 9.23 -19.64 18.48 -0.81 1.27 -2.57 4.50 -3.89 7.21 l-2.42 4.88 -0.99 0 c-0.62 0 -1.58 -0.26 -2.55 -0.66 -0.86 -0.37 -1.60 -0.64 -1.63 -0.59 -0.04 0.04 0.35 1.60 0.88 3.47 0.73 2.55 3.49 12.61 4.66 16.92 0.09 0.31 1.67 -0.26 9.49 -3.38 5.16 -2.09 9.43 -3.82 9.49 -3.87z m27.49 -17.56 c0.94 -2.79 1.54 -5.82 1.67 -8.66 l0.13 -2.59 -0.53 0 c-2.02 0 -6.94 1.91 -9.95 3.82 l-1.25 0.81 1.38 1.54 c2.42 2.70 4.33 5.08 5.63 7.05 l1.25 1.91 0.53 -1.03 c0.29 -0.57 0.81 -1.85 1.14 -2.86z m-86.04 -12.59 c0.97 -0.77 2.29 -1.76 2.94 -2.18 l1.19 -0.75 -0.68 -0.29 c-1.01 -0.42 -4.11 -1.30 -6 -1.71 -0.90 -0.20 -3.10 -0.42 -4.90 -0.48 l-3.27 -0.13 0.18 0.86 c0.46 2.57 1.85 6.02 3.58 9.05 l0.79 1.36 2.22 -2.15 c1.21 -1.21 2.99 -2.81 3.96 -3.58z"/>
 </g>
 <g fill="#fb8627">
  <path d="M109.75 166.62 c-4.53 -0.37 -12.19 -1.93 -12.19 -2.48 0 -0.09 0.20 -0.33 0.46 -0.57 1.38 -1.25 5.41 -6.77 7.34 -10.06 1.30 -2.22 4.28 -8.26 4.28 -8.68 0 -0.42 0.53 -0.26 2.86 0.75 2.83 1.23 3.67 1.47 4.20 1.19 0.53 -0.26 0.55 -1.30 0.07 -3.14 -0.33 -1.32 -6.04 -22.76 -6.46 -24.35 -0.31 -1.08 -0.75 -1.49 -1.65 -1.49 -0.42 0 -4.33 1.43 -9.49 3.49 -4.81 1.91 -10.20 4.04 -11.98 4.72 -6.13 2.40 -6.20 2.81 -0.90 5.69 1.60 0.88 2.92 1.65 2.92 1.71 0 0.18 -2.29 3.71 -3.82 5.91 -2.15 3.08 -4.68 6.09 -7.65 9.12 l-2.79 2.86 -1.23 -1.21 c-3.30 -3.21 -7.27 -8.68 -9.76 -13.40 -2.97 -5.69 -4.97 -12.02 -5.73 -18.24 -0.33 -2.81 -0.29 -9.91 0.13 -12.79 0.55 -4.06 1.45 -7.87 1.87 -7.87 0.11 0 0.92 0.59 1.80 1.34 4.57 3.85 8.66 6.50 14.55 9.47 2.18 1.08 4 2.07 4.02 2.18 0.04 0.11 -0.42 1.27 -1.05 2.59 -1.23 2.61 -1.54 3.78 -1.10 4.31 0.57 0.70 0.73 0.66 20.32 -4.75 7.56 -2.09 8.17 -2.31 8.48 -2.88 0.42 -0.77 0.75 0.20 -6.26 -17.82 -1.63 -4.22 -3.12 -7.91 -3.32 -8.20 -0.22 -0.35 -0.55 -0.53 -0.99 -0.53 -0.77 0 -1.19 0.51 -3.08 3.85 -0.77 1.34 -1.47 2.53 -1.58 2.68 -0.33 0.42 -6.31 -3.38 -10.33 -6.57 -2.48 -1.98 -8.31 -7.60 -8.31 -8.02 0 -0.44 4.06 -4.55 6.24 -6.31 7.38 -6 16.72 -10.02 26.39 -11.38 3.16 -0.44 12.02 -0.37 14.94 0.11 2.42 0.40 6.15 1.27 7.25 1.69 l0.59 0.22 -1.14 1.19 c-3.85 4.04 -8.20 10.63 -11.27 17.14 -1.01 2.11 -1.32 2.57 -1.63 2.48 -0.22 -0.07 -1.49 -0.57 -2.86 -1.12 -2.50 -1.03 -3.52 -1.21 -3.98 -0.75 -0.51 0.51 -0.37 1.10 2.20 10.39 0.73 2.66 2.11 7.62 3.05 11.05 0.94 3.43 1.87 6.46 2.07 6.77 0.26 0.40 0.53 0.53 1.16 0.53 0.88 0 24.13 -9.14 25.40 -10 0.75 -0.48 1.01 -1.41 0.53 -1.80 -0.15 -0.13 -1.74 -1.01 -3.54 -1.93 l-3.23 -1.71 0.68 -1.23 c1.27 -2.26 4.31 -6.70 6.28 -9.14 2.59 -3.23 7.19 -7.80 7.84 -7.80 0.62 0 4 3.65 6.42 6.86 8.92 11.93 12.41 26.50 9.76 40.65 -0.40 2.11 -1.43 6.09 -1.65 6.28 -0.04 0.04 -0.70 -0.44 -1.47 -1.10 -4.42 -3.74 -10.77 -7.78 -16.37 -10.44 -1.36 -0.64 -2.48 -1.21 -2.48 -1.27 0 -0.07 0.33 -0.79 0.75 -1.60 0.40 -0.81 0.99 -2.15 1.32 -2.99 1.16 -2.92 0.33 -3.16 -5.67 -1.54 -2.07 0.55 -6.88 1.85 -10.68 2.88 -3.80 1.03 -8 2.15 -9.32 2.50 -1.34 0.35 -2.59 0.81 -2.81 1.01 -0.75 0.68 -0.48 1.76 2.22 8.77 5.54 14.44 7.01 18.02 7.58 18.37 0.44 0.29 0.99 0.18 1.41 -0.26 0.24 -0.26 1.21 -1.85 2.15 -3.54 1.38 -2.46 1.82 -3.05 2.13 -2.97 0.70 0.18 5.36 3.25 8.68 5.73 3.30 2.46 9.27 8.09 9.27 8.75 0 0.37 -2.70 2.97 -5.14 4.97 -4.31 3.52 -11.23 7.32 -16.61 9.12 -6.59 2.22 -13.82 3.16 -20.10 2.61z"/>
 </g>
 <g fill="#fffffe">
  <path d="M76.46 172.20 c-5.14 -2.31 -9.91 -5.54 -13.97 -9.45 l-2.15 -2.07 1.82 -0.26 c7.27 -1.08 14.50 -6.13 22.04 -15.42 3.16 -3.91 8.09 -11.36 8.09 -12.24 0 -0.35 -0.66 -0.81 -2.86 -2.04 -1.56 -0.88 -2.86 -1.67 -2.86 -1.74 0 -0.07 1.71 -0.79 3.80 -1.63 2.07 -0.81 6.88 -2.72 10.66 -4.24 3.80 -1.52 6.94 -2.70 6.99 -2.64 0.04 0.04 1.43 5.12 3.08 11.27 1.65 6.15 3.05 11.38 3.12 11.60 0.09 0.31 0.02 0.40 -0.20 0.31 -0.18 -0.09 -1.38 -0.62 -2.68 -1.19 -1.71 -0.77 -2.46 -1.01 -2.70 -0.86 -0.20 0.13 -1.01 1.71 -1.82 3.52 -4.24 9.49 -10.35 17.73 -16.57 22.39 -2.50 1.87 -4.28 2.90 -7.29 4.20 -3.23 1.41 -4.26 1.47 -6.48 0.48z"/>
  <path d="M160.64 162.60 c-0.46 -2.42 -1.12 -4.42 -2.24 -6.70 -2.75 -5.71 -7.29 -11.03 -13.71 -16.04 -3.69 -2.88 -11.14 -7.58 -12 -7.58 -0.40 0 -1.08 1.03 -2.81 4.22 -0.51 0.94 -1.01 1.76 -1.12 1.82 -0.11 0.07 -0.31 -0.26 -0.44 -0.70 -0.26 -0.79 -0.92 -2.50 -5.80 -15.01 -1.16 -2.97 -2.11 -5.52 -2.11 -5.65 0 -0.13 0.18 -0.31 0.40 -0.37 0.20 -0.07 4.28 -1.16 9.05 -2.44 4.77 -1.27 9.89 -2.68 11.36 -3.10 1.47 -0.42 2.72 -0.75 2.77 -0.75 0.07 0 -0.42 1.08 -1.05 2.37 -0.64 1.30 -1.21 2.59 -1.30 2.86 -0.15 0.42 0.18 0.64 3.76 2.44 14.77 7.38 22.74 14.61 26.92 24.37 1.23 2.90 1.21 3.32 -0.29 6.42 -2.22 4.59 -5.45 9.23 -9.16 13.18 l-1.96 2.07 -0.26 -1.41z"/>
  <path d="M81.30 115.22 c0 -0.04 0.55 -1.19 1.21 -2.50 1.23 -2.46 1.43 -3.14 0.94 -3.45 -0.15 -0.09 -1.67 -0.81 -3.36 -1.60 -7.65 -3.60 -13.91 -7.76 -18.96 -12.61 -4.02 -3.87 -7.19 -8.64 -8.92 -13.49 l-0.57 -1.58 0.44 -1.19 c0.59 -1.58 3.16 -6.02 5.08 -8.77 1.58 -2.26 5.10 -6.55 6.33 -7.71 l0.66 -0.64 0.11 0.53 c1.38 7.19 4 11.76 10.35 18.11 4.68 4.70 10.33 8.90 16.33 12.13 l1.87 1.01 0.40 -0.53 c0.22 -0.29 1.01 -1.63 1.78 -2.99 0.75 -1.36 1.45 -2.40 1.54 -2.31 0.09 0.09 1.21 2.83 2.46 6.09 1.25 3.27 3.08 7.95 4.06 10.44 0.97 2.46 1.69 4.55 1.60 4.64 -0.09 0.07 -1.89 0.59 -4 1.16 -2.11 0.57 -4.88 1.34 -6.15 1.69 -1.27 0.35 -4.44 1.23 -7.03 1.96 -2.59 0.73 -5.05 1.41 -5.43 1.52 -0.40 0.11 -0.73 0.18 -0.73 0.11z"/>
  <path d="M116.50 103.01 c-0.44 -1.67 -2.99 -10.88 -5.05 -18.30 -0.48 -1.69 -0.83 -3.10 -0.81 -3.14 0.02 -0.02 1.19 0.44 2.57 1.05 1.41 0.59 2.70 1.10 2.88 1.10 0.24 0 1.14 -1.63 2.77 -4.88 1.32 -2.70 3.08 -5.93 3.89 -7.21 4.94 -7.67 10.28 -13.21 16.02 -16.59 2.02 -1.21 5.10 -2.61 6.48 -2.99 0.97 -0.26 1.08 -0.22 2.99 0.64 3.87 1.74 8.02 4.33 11.67 7.27 3.14 2.55 4.77 4.09 4.61 4.35 -0.09 0.13 -0.79 0.29 -1.58 0.37 -4.86 0.51 -12.37 4.92 -17.95 10.55 -4.11 4.13 -8.72 10.37 -11.38 15.36 -0.99 1.85 -1.12 2.22 -0.86 2.46 0.18 0.18 1.58 0.97 3.14 1.78 2.83 1.47 2.86 1.49 2.20 1.76 -2.94 1.25 -20.59 8.22 -20.81 8.22 -0.20 0 -0.48 -0.68 -0.77 -1.80z"/>
 </g>
 <g fill="#cb5f07">
  <path d="M151.06 165.10 c-3.49 -0.53 -9.23 -2.22 -10.35 -3.03 -0.44 -0.33 -0.64 -0.15 2.33 -1.91 2.18 -1.27 6.31 -4.42 8.33 -6.35 0.90 -0.83 1.76 -1.54 1.87 -1.54 0.53 0 2.97 4.46 3.93 7.14 0.44 1.23 1.47 5.38 1.47 5.93 0 0.24 -5.69 0.07 -7.58 -0.24z"/>
  <path d="M58.82 157.06 c-0.18 -1.45 0.18 -5.78 0.64 -8.02 0.48 -2.33 1.30 -4.90 2.20 -6.83 0.97 -2.13 1.30 -2.09 2.77 0.24 1.63 2.66 4.02 5.71 6.37 8.17 l2.15 2.26 -1.82 1.19 c-3.89 2.59 -8.06 4.13 -11.25 4.13 l-0.92 0 -0.13 -1.14z"/>
  <path d="M160.84 82.11 c-1.67 -2.61 -3.49 -4.94 -6.20 -7.87 -1.05 -1.16 -1.93 -2.18 -1.93 -2.26 0 -0.29 3.14 -2.18 5.34 -3.23 2.26 -1.05 4.97 -1.82 7.16 -2.02 l1.19 -0.09 -0.13 3.43 c-0.15 3.60 -0.55 5.93 -1.60 9.14 -0.51 1.49 -2.18 5.19 -2.35 5.14 -0.02 0 -0.68 -1.01 -1.47 -2.24z"/>
  <path d="M70.60 71.70 c-1.32 -2.18 -2.35 -4.33 -3.01 -6.33 -0.53 -1.65 -1.21 -4.48 -1.23 -5.10 0 -0.42 5.73 -0.37 8.24 0.04 3.27 0.53 9.12 2.31 9.12 2.75 0 0.09 -0.77 0.64 -1.69 1.23 -2.46 1.54 -4.86 3.52 -7.76 6.37 -1.38 1.38 -2.59 2.50 -2.64 2.50 -0.07 0 -0.53 -0.66 -1.03 -1.47z"/>
 </g>
</svg>